<svg height="597pt" viewBox="-18 -128 597.33331 597" width="597pt" xmlns="http://www.w3.org/2000/svg"><path d="m560 22.832031c0-16.566406-13.433594-30-30-30h-500c-16.566406 0-30 13.433594-30 30v280c0 16.570313 13.433594 30 30 30h500c16.566406 0 30-13.429687 30-30zm-410 230h-80c-5.523438 0-10-4.476562-10-10v-160c0-5.519531 4.476562-10 10-10s10 4.480469 10 10v150h70c5.523438 0 10 4.480469 10 10 0 5.523438-4.476562 10-10 10zm60-10c0 5.523438-4.476562 10-10 10s-10-4.476562-10-10v-160c0-5.519531 4.476562-10 10-10s10 4.480469 10 10zm159.371094-156.488281-60 160c-1.464844 3.90625-5.199219 6.496094-9.371094 6.488281h-.277344c-4.269531-.117187-7.996094-2.921875-9.273437-7l-50-160c-1.65625-5.273437 1.273437-10.894531 6.550781-12.550781 5.273438-1.652344 10.894531 1.277344 12.550781 6.554688l41.308594 132.207031 49.769531-132.738281c1.933594-5.175782 7.695313-7.804688 12.871094-5.871094s7.804688 7.695312 5.871094 12.871094zm100.628906 66.488281c5.523438 0 10 4.480469 10 10 0 5.523438-4.476562 10-10 10h-50v60h70c5.523438 0 10 4.480469 10 10 0 5.523438-4.476562 10-10 10h-80c-5.523438 0-10-4.476562-10-10v-160c0-5.519531 4.476562-10 10-10h80c5.523438 0 10 4.480469 10 10 0 5.523438-4.476562 10-10 10h-70v60zm0 0"/></svg>